<svg width="24" height="24" viewBox="0 0 24 24" fill="none" xmlns="http://www.w3.org/2000/svg">
<path d="M10.7714 7.14286L7.62857 15.4C7.51429 15.6667 7.54286 15.9284 7.71429 16.1851C7.88571 16.4427 8.12381 16.5714 8.42857 16.5714C8.61905 16.5714 8.78552 16.5192 8.928 16.4149C9.07124 16.3097 9.17143 16.1714 9.22857 16L9.94286 13.9429H14.1143L14.8286 16.0286C14.8857 16.2 14.9859 16.3333 15.1291 16.4286C15.2716 16.5238 15.4286 16.5714 15.6 16.5714C15.8857 16.5714 16.1097 16.4526 16.272 16.2149C16.4335 15.9764 16.4667 15.7238 16.3714 15.4571L13.2286 7.14286C13.1333 6.87619 12.9714 6.66667 12.7429 6.51429C12.5143 6.3619 12.2667 6.28571 12 6.28571C11.7333 6.28571 11.4857 6.3619 11.2571 6.51429C11.0286 6.66667 10.8667 6.87619 10.7714 7.14286V7.14286ZM10.4571 12.4571L11.9429 8.17143H12.0571L13.5429 12.4571H10.4571ZM8.17143 21.1429H5.14286C4.51429 21.1429 3.97638 20.9192 3.52914 20.472C3.08114 20.024 2.85714 19.4857 2.85714 18.8571V15.8286L0.657143 13.6C0.219048 13.1619 0 12.6286 0 12C0 11.3714 0.219048 10.8381 0.657143 10.4L2.85714 8.17143V5.14286C2.85714 4.51429 3.08114 3.97638 3.52914 3.52914C3.97638 3.08114 4.51429 2.85714 5.14286 2.85714H8.17143L10.4 0.657143C10.8381 0.219048 11.3714 0 12 0C12.6286 0 13.1619 0.219048 13.6 0.657143L15.8286 2.85714H18.8571C19.4857 2.85714 20.024 3.08114 20.472 3.52914C20.9192 3.97638 21.1429 4.51429 21.1429 5.14286V8.17143L23.3429 10.4C23.781 10.8381 24 11.3714 24 12C24 12.6286 23.781 13.1619 23.3429 13.6L21.1429 15.8286V18.8571C21.1429 19.4857 20.9192 20.024 20.472 20.472C20.024 20.9192 19.4857 21.1429 18.8571 21.1429H15.8286L13.6 23.3429C13.1619 23.781 12.6286 24 12 24C11.3714 24 10.8381 23.781 10.4 23.3429L8.17143 21.1429Z"/>
</svg>
