<svg width="8" height="8" viewBox="0 0 8 8" fill="none" xmlns="http://www.w3.org/2000/svg">
<path d="M4.88889 5.71429V8H4V5.71429H2.66667L4.44444 3.80952L6.22222 5.71429H4.88889ZM5.77778 6.47619H7.11111V5.33333H6.75556L4.44444 2.85714L2.06533 5.33333H1.55556C1.37874 5.33333 1.20918 5.39354 1.08415 5.5007C0.959127 5.60786 0.888889 5.75321 0.888889 5.90476C0.888889 6.05631 0.959127 6.20166 1.08415 6.30882C1.20918 6.41599 1.37874 6.47619 1.55556 6.47619H3.11111V7.2381H1.55556C1.143 7.2381 0.747335 7.09762 0.455612 6.84757C0.163889 6.59752 0 6.25838 0 5.90476V1.14286C0 0.839753 0.140476 0.549062 0.390524 0.334735C0.640573 0.120408 0.979711 0 1.33333 0H7.55556C7.67343 0 7.78648 0.0401359 7.86983 0.111578C7.95318 0.183021 8 0.279918 8 0.380952V6.85714C8 6.95818 7.95318 7.05507 7.86983 7.12652C7.78648 7.19796 7.67343 7.2381 7.55556 7.2381H5.77778V6.47619ZM1.77778 1.14286V1.90476H2.66667V1.14286H1.77778ZM1.77778 2.28571V3.04762H2.66667V2.28571H1.77778Z"/>
</svg>
