<svg width="2647" height="2145" viewBox="0 0 2647 2145" fill="none" xmlns="http://www.w3.org/2000/svg">
<g clip-path="url(#clip0_38_2483)">
<path d="M2645.71 2145H1773.72V2137.88H2647L2645.71 2145Z" fill="#3F3D56"/>
<path d="M403.5 606C414.27 606 423 597.493 423 587C423 576.507 414.27 568 403.5 568C392.73 568 384 576.507 384 587C384 597.493 392.73 606 403.5 606Z" fill="#E6E6E6"/>
<path d="M501 606C511.493 606 520 597.493 520 587C520 576.507 511.493 568 501 568C490.507 568 482 576.507 482 587C482 597.493 490.507 606 501 606Z" fill="#E6E6E6"/>
<path d="M598.5 606C609.27 606 618 597.493 618 587C618 576.507 609.27 568 598.5 568C587.73 568 579 576.507 579 587C579 597.493 587.73 606 598.5 606Z" fill="#E6E6E6"/>
<path d="M696 606C706.493 606 715 597.493 715 587C715 576.507 706.493 568 696 568C685.507 568 677 576.507 677 587C677 597.493 685.507 606 696 606Z" fill="#E6E6E6"/>
<path d="M793.5 606C804.27 606 813 597.493 813 587C813 576.507 804.27 568 793.5 568C782.73 568 774 576.507 774 587C774 597.493 782.73 606 793.5 606Z" fill="#E6E6E6"/>
<path d="M891 606C901.493 606 910 597.493 910 587C910 576.507 901.493 568 891 568C880.507 568 872 576.507 872 587C872 597.493 880.507 606 891 606Z" fill="#E6E6E6"/>
<path d="M988.5 606C999.27 606 1008 597.493 1008 587C1008 576.507 999.27 568 988.5 568C977.73 568 969 576.507 969 587C969 597.493 977.73 606 988.5 606Z" fill="#E6E6E6"/>
<path d="M1086 606C1096.49 606 1105 597.493 1105 587C1105 576.507 1096.49 568 1086 568C1075.51 568 1067 576.507 1067 587C1067 597.493 1075.51 606 1086 606Z" fill="#E6E6E6"/>
<path d="M1183.5 606C1194.27 606 1203 597.493 1203 587C1203 576.507 1194.27 568 1183.5 568C1172.73 568 1164 576.507 1164 587C1164 597.493 1172.73 606 1183.5 606Z" fill="#E6E6E6"/>
<path d="M1281 606C1291.49 606 1300 597.493 1300 587C1300 576.507 1291.49 568 1281 568C1270.51 568 1262 576.507 1262 587C1262 597.493 1270.51 606 1281 606Z" fill="#E6E6E6"/>
<path d="M403.5 705C414.27 705 423 696.27 423 685.5C423 674.73 414.27 666 403.5 666C392.73 666 384 674.73 384 685.5C384 696.27 392.73 705 403.5 705Z" fill="#E6E6E6"/>
<path d="M501 705C511.493 705 520 696.27 520 685.5C520 674.73 511.493 666 501 666C490.507 666 482 674.73 482 685.5C482 696.27 490.507 705 501 705Z" fill="#E6E6E6"/>
<path d="M598.5 705C609.27 705 618 696.27 618 685.5C618 674.73 609.27 666 598.5 666C587.73 666 579 674.73 579 685.5C579 696.27 587.73 705 598.5 705Z" fill="#E6E6E6"/>
<path d="M696 705C706.493 705 715 696.27 715 685.5C715 674.73 706.493 666 696 666C685.507 666 677 674.73 677 685.5C677 696.27 685.507 705 696 705Z" fill="#007EDA"/>
<path d="M793.5 705C804.27 705 813 696.27 813 685.5C813 674.73 804.27 666 793.5 666C782.73 666 774 674.73 774 685.5C774 696.27 782.73 705 793.5 705Z" fill="#E6E6E6"/>
<path d="M891 705C901.493 705 910 696.27 910 685.5C910 674.73 901.493 666 891 666C880.507 666 872 674.73 872 685.5C872 696.27 880.507 705 891 705Z" fill="#E6E6E6"/>
<path d="M988.5 705C999.27 705 1008 696.27 1008 685.5C1008 674.73 999.27 666 988.5 666C977.73 666 969 674.73 969 685.5C969 696.27 977.73 705 988.5 705Z" fill="#E6E6E6"/>
<path d="M1086 705C1096.49 705 1105 696.27 1105 685.5C1105 674.73 1096.49 666 1086 666C1075.51 666 1067 674.73 1067 685.5C1067 696.27 1075.51 705 1086 705Z" fill="#E6E6E6"/>
<path d="M1183.5 705C1194.27 705 1203 696.27 1203 685.5C1203 674.73 1194.27 666 1183.5 666C1172.73 666 1164 674.73 1164 685.5C1164 696.27 1172.73 705 1183.5 705Z" fill="#E6E6E6"/>
<path d="M1281 705C1291.49 705 1300 696.27 1300 685.5C1300 674.73 1291.49 666 1281 666C1270.51 666 1262 674.73 1262 685.5C1262 696.27 1270.51 705 1281 705Z" fill="#E6E6E6"/>
<path d="M403.5 804C414.27 804 423 795.27 423 784.5C423 773.73 414.27 765 403.5 765C392.73 765 384 773.73 384 784.5C384 795.27 392.73 804 403.5 804Z" fill="#E6E6E6"/>
<path d="M501 804C511.493 804 520 795.27 520 784.5C520 773.73 511.493 765 501 765C490.507 765 482 773.73 482 784.5C482 795.27 490.507 804 501 804Z" fill="#E6E6E6"/>
<path d="M598.5 804C609.27 804 618 795.27 618 784.5C618 773.73 609.27 765 598.5 765C587.73 765 579 773.73 579 784.5C579 795.27 587.73 804 598.5 804Z" fill="#E6E6E6"/>
<path d="M696 804C706.493 804 715 795.27 715 784.5C715 773.73 706.493 765 696 765C685.507 765 677 773.73 677 784.5C677 795.27 685.507 804 696 804Z" fill="#E6E6E6"/>
<path d="M793.5 804C804.27 804 813 795.27 813 784.5C813 773.73 804.27 765 793.5 765C782.73 765 774 773.73 774 784.5C774 795.27 782.73 804 793.5 804Z" fill="#E6E6E6"/>
<path d="M891 804C901.493 804 910 795.27 910 784.5C910 773.73 901.493 765 891 765C880.507 765 872 773.73 872 784.5C872 795.27 880.507 804 891 804Z" fill="#E6E6E6"/>
<path d="M988.5 804C999.27 804 1008 795.27 1008 784.5C1008 773.73 999.27 765 988.5 765C977.73 765 969 773.73 969 784.5C969 795.27 977.73 804 988.5 804Z" fill="#E6E6E6"/>
<path d="M1086 804C1096.49 804 1105 795.27 1105 784.5C1105 773.73 1096.49 765 1086 765C1075.51 765 1067 773.73 1067 784.5C1067 795.27 1075.51 804 1086 804Z" fill="#E6E6E6"/>
<path d="M1183.5 804C1194.27 804 1203 795.27 1203 784.5C1203 773.73 1194.27 765 1183.5 765C1172.73 765 1164 773.73 1164 784.5C1164 795.27 1172.73 804 1183.5 804Z" fill="#E6E6E6"/>
<path d="M1281 804C1291.49 804 1300 795.27 1300 784.5C1300 773.73 1291.49 765 1281 765C1270.51 765 1262 773.73 1262 784.5C1262 795.27 1270.51 804 1281 804Z" fill="#E6E6E6"/>
<path d="M403.5 902C414.27 902 423 893.493 423 883C423 872.507 414.27 864 403.5 864C392.73 864 384 872.507 384 883C384 893.493 392.73 902 403.5 902Z" fill="#E6E6E6"/>
<path d="M501 902C511.493 902 520 893.493 520 883C520 872.507 511.493 864 501 864C490.507 864 482 872.507 482 883C482 893.493 490.507 902 501 902Z" fill="#E6E6E6"/>
<path d="M598.5 902C609.27 902 618 893.493 618 883C618 872.507 609.27 864 598.5 864C587.73 864 579 872.507 579 883C579 893.493 587.73 902 598.5 902Z" fill="#E6E6E6"/>
<path d="M696 902C706.493 902 715 893.493 715 883C715 872.507 706.493 864 696 864C685.507 864 677 872.507 677 883C677 893.493 685.507 902 696 902Z" fill="#E6E6E6"/>
<path d="M793.5 902C804.27 902 813 893.493 813 883C813 872.507 804.27 864 793.5 864C782.73 864 774 872.507 774 883C774 893.493 782.73 902 793.5 902Z" fill="#E6E6E6"/>
<path d="M891 902C901.493 902 910 893.493 910 883C910 872.507 901.493 864 891 864C880.507 864 872 872.507 872 883C872 893.493 880.507 902 891 902Z" fill="#E6E6E6"/>
<path d="M988.5 902C999.27 902 1008 893.493 1008 883C1008 872.507 999.27 864 988.5 864C977.73 864 969 872.507 969 883C969 893.493 977.73 902 988.5 902Z" fill="#E6E6E6"/>
<path d="M1086 902C1096.49 902 1105 893.493 1105 883C1105 872.507 1096.49 864 1086 864C1075.51 864 1067 872.507 1067 883C1067 893.493 1075.51 902 1086 902Z" fill="#E6E6E6"/>
<path d="M1183.5 902C1194.27 902 1203 893.493 1203 883C1203 872.507 1194.27 864 1183.5 864C1172.73 864 1164 872.507 1164 883C1164 893.493 1172.73 902 1183.5 902Z" fill="#E6E6E6"/>
<path d="M1281 902C1291.49 902 1300 893.493 1300 883C1300 872.507 1291.49 864 1281 864C1270.51 864 1262 872.507 1262 883C1262 893.493 1270.51 902 1281 902Z" fill="#E6E6E6"/>
<path d="M403.5 1001C414.27 1001 423 992.493 423 982C423 971.507 414.27 963 403.5 963C392.73 963 384 971.507 384 982C384 992.493 392.73 1001 403.5 1001Z" fill="#E6E6E6"/>
<path d="M501 1001C511.493 1001 520 992.493 520 982C520 971.507 511.493 963 501 963C490.507 963 482 971.507 482 982C482 992.493 490.507 1001 501 1001Z" fill="#007EDA"/>
<path d="M598.5 1001C609.27 1001 618 992.493 618 982C618 971.507 609.27 963 598.5 963C587.73 963 579 971.507 579 982C579 992.493 587.73 1001 598.5 1001Z" fill="#E6E6E6"/>
<path d="M696 1001C706.493 1001 715 992.493 715 982C715 971.507 706.493 963 696 963C685.507 963 677 971.507 677 982C677 992.493 685.507 1001 696 1001Z" fill="#E6E6E6"/>
<path d="M793.5 1001C804.27 1001 813 992.493 813 982C813 971.507 804.27 963 793.5 963C782.73 963 774 971.507 774 982C774 992.493 782.73 1001 793.5 1001Z" fill="#E6E6E6"/>
<path d="M891 1001C901.493 1001 910 992.493 910 982C910 971.507 901.493 963 891 963C880.507 963 872 971.507 872 982C872 992.493 880.507 1001 891 1001Z" fill="#E6E6E6"/>
<path d="M988.5 1001C999.27 1001 1008 992.493 1008 982C1008 971.507 999.27 963 988.5 963C977.73 963 969 971.507 969 982C969 992.493 977.73 1001 988.5 1001Z" fill="#E6E6E6"/>
<path d="M1086 1001C1096.49 1001 1105 992.493 1105 982C1105 971.507 1096.49 963 1086 963C1075.51 963 1067 971.507 1067 982C1067 992.493 1075.51 1001 1086 1001Z" fill="#E6E6E6"/>
<path d="M1183.5 1001C1194.27 1001 1203 992.493 1203 982C1203 971.507 1194.27 963 1183.5 963C1172.73 963 1164 971.507 1164 982C1164 992.493 1172.73 1001 1183.5 1001Z" fill="#E6E6E6"/>
<path d="M1281 1001C1291.49 1001 1300 992.493 1300 982C1300 971.507 1291.49 963 1281 963C1270.51 963 1262 971.507 1262 982C1262 992.493 1270.51 1001 1281 1001Z" fill="#E6E6E6"/>
<path d="M403.5 1100C414.27 1100 423 1091.27 423 1080.5C423 1069.73 414.27 1061 403.5 1061C392.73 1061 384 1069.73 384 1080.5C384 1091.27 392.73 1100 403.5 1100Z" fill="#E6E6E6"/>
<path d="M501 1100C511.493 1100 520 1091.27 520 1080.5C520 1069.73 511.493 1061 501 1061C490.507 1061 482 1069.73 482 1080.5C482 1091.27 490.507 1100 501 1100Z" fill="#E6E6E6"/>
<path d="M598.5 1100C609.27 1100 618 1091.27 618 1080.5C618 1069.73 609.27 1061 598.5 1061C587.73 1061 579 1069.73 579 1080.5C579 1091.27 587.73 1100 598.5 1100Z" fill="#E6E6E6"/>
<path d="M696 1100C706.493 1100 715 1091.27 715 1080.5C715 1069.73 706.493 1061 696 1061C685.507 1061 677 1069.73 677 1080.5C677 1091.27 685.507 1100 696 1100Z" fill="#E6E6E6"/>
<path d="M793.5 1100C804.27 1100 813 1091.27 813 1080.5C813 1069.73 804.27 1061 793.5 1061C782.73 1061 774 1069.73 774 1080.5C774 1091.27 782.73 1100 793.5 1100Z" fill="#E6E6E6"/>
<path d="M891 1100C901.493 1100 910 1091.27 910 1080.5C910 1069.73 901.493 1061 891 1061C880.507 1061 872 1069.73 872 1080.5C872 1091.27 880.507 1100 891 1100Z" fill="#E6E6E6"/>
<path d="M988.5 1100C999.27 1100 1008 1091.27 1008 1080.5C1008 1069.73 999.27 1061 988.5 1061C977.73 1061 969 1069.73 969 1080.5C969 1091.27 977.73 1100 988.5 1100Z" fill="#E6E6E6"/>
<path d="M1086 1100C1096.49 1100 1105 1091.27 1105 1080.5C1105 1069.73 1096.49 1061 1086 1061C1075.51 1061 1067 1069.73 1067 1080.5C1067 1091.27 1075.51 1100 1086 1100Z" fill="#E6E6E6"/>
<path d="M1183.5 1100C1194.27 1100 1203 1091.27 1203 1080.5C1203 1069.73 1194.27 1061 1183.5 1061C1172.73 1061 1164 1069.73 1164 1080.5C1164 1091.27 1172.73 1100 1183.5 1100Z" fill="#E6E6E6"/>
<path d="M1281 1100C1291.49 1100 1300 1091.27 1300 1080.5C1300 1069.73 1291.49 1061 1281 1061C1270.51 1061 1262 1069.73 1262 1080.5C1262 1091.27 1270.51 1100 1281 1100Z" fill="#E6E6E6"/>
<path d="M403.5 1199C414.27 1199 423 1190.27 423 1179.5C423 1168.73 414.27 1160 403.5 1160C392.73 1160 384 1168.73 384 1179.5C384 1190.27 392.73 1199 403.5 1199Z" fill="#E6E6E6"/>
<path d="M501 1199C511.493 1199 520 1190.27 520 1179.5C520 1168.73 511.493 1160 501 1160C490.507 1160 482 1168.73 482 1179.5C482 1190.27 490.507 1199 501 1199Z" fill="#E6E6E6"/>
<path d="M598.5 1199C609.27 1199 618 1190.27 618 1179.5C618 1168.73 609.27 1160 598.5 1160C587.73 1160 579 1168.73 579 1179.5C579 1190.27 587.73 1199 598.5 1199Z" fill="#007EDA"/>
<path d="M696 1199C706.493 1199 715 1190.27 715 1179.5C715 1168.73 706.493 1160 696 1160C685.507 1160 677 1168.73 677 1179.5C677 1190.27 685.507 1199 696 1199Z" fill="#E6E6E6"/>
<path d="M793.5 1199C804.27 1199 813 1190.27 813 1179.5C813 1168.73 804.27 1160 793.5 1160C782.73 1160 774 1168.73 774 1179.5C774 1190.27 782.73 1199 793.5 1199Z" fill="#E6E6E6"/>
<path d="M891 1199C901.493 1199 910 1190.27 910 1179.5C910 1168.73 901.493 1160 891 1160C880.507 1160 872 1168.73 872 1179.5C872 1190.27 880.507 1199 891 1199Z" fill="#E6E6E6"/>
<path d="M988.5 1199C999.27 1199 1008 1190.27 1008 1179.5C1008 1168.73 999.27 1160 988.5 1160C977.73 1160 969 1168.73 969 1179.5C969 1190.27 977.73 1199 988.5 1199Z" fill="#E6E6E6"/>
<path d="M1086 1199C1096.49 1199 1105 1190.27 1105 1179.5C1105 1168.73 1096.49 1160 1086 1160C1075.51 1160 1067 1168.73 1067 1179.5C1067 1190.27 1075.51 1199 1086 1199Z" fill="#E6E6E6"/>
<path d="M1183.5 1199C1194.27 1199 1203 1190.27 1203 1179.5C1203 1168.73 1194.27 1160 1183.5 1160C1172.73 1160 1164 1168.73 1164 1179.5C1164 1190.27 1172.73 1199 1183.5 1199Z" fill="#E6E6E6"/>
<path d="M1281 1199C1291.49 1199 1300 1190.27 1300 1179.5C1300 1168.73 1291.49 1160 1281 1160C1270.51 1160 1262 1168.73 1262 1179.5C1262 1190.27 1270.51 1199 1281 1199Z" fill="#E6E6E6"/>
<path d="M403.5 1297C414.27 1297 423 1288.49 423 1278C423 1267.51 414.27 1259 403.5 1259C392.73 1259 384 1267.51 384 1278C384 1288.49 392.73 1297 403.5 1297Z" fill="#E6E6E6"/>
<path d="M501 1297C511.493 1297 520 1288.49 520 1278C520 1267.51 511.493 1259 501 1259C490.507 1259 482 1267.51 482 1278C482 1288.49 490.507 1297 501 1297Z" fill="#E6E6E6"/>
<path d="M598.5 1297C609.27 1297 618 1288.49 618 1278C618 1267.51 609.27 1259 598.5 1259C587.73 1259 579 1267.51 579 1278C579 1288.49 587.73 1297 598.5 1297Z" fill="#E6E6E6"/>
<path d="M696 1297C706.493 1297 715 1288.49 715 1278C715 1267.51 706.493 1259 696 1259C685.507 1259 677 1267.51 677 1278C677 1288.49 685.507 1297 696 1297Z" fill="#E6E6E6"/>
<path d="M793.5 1297C804.27 1297 813 1288.49 813 1278C813 1267.51 804.27 1259 793.5 1259C782.73 1259 774 1267.51 774 1278C774 1288.49 782.73 1297 793.5 1297Z" fill="#E6E6E6"/>
<path d="M891 1297C901.493 1297 910 1288.49 910 1278C910 1267.51 901.493 1259 891 1259C880.507 1259 872 1267.51 872 1278C872 1288.49 880.507 1297 891 1297Z" fill="#E6E6E6"/>
<path d="M988.5 1297C999.27 1297 1008 1288.49 1008 1278C1008 1267.51 999.27 1259 988.5 1259C977.73 1259 969 1267.51 969 1278C969 1288.49 977.73 1297 988.5 1297Z" fill="#E6E6E6"/>
<path d="M1086 1297C1096.49 1297 1105 1288.49 1105 1278C1105 1267.51 1096.49 1259 1086 1259C1075.51 1259 1067 1267.51 1067 1278C1067 1288.49 1075.51 1297 1086 1297Z" fill="#E6E6E6"/>
<path d="M1183.5 1297C1194.27 1297 1203 1288.49 1203 1278C1203 1267.51 1194.27 1259 1183.5 1259C1172.73 1259 1164 1267.51 1164 1278C1164 1288.49 1172.73 1297 1183.5 1297Z" fill="#E6E6E6"/>
<path d="M1281 1297C1291.49 1297 1300 1288.49 1300 1278C1300 1267.51 1291.49 1259 1281 1259C1270.51 1259 1262 1267.51 1262 1278C1262 1288.49 1270.51 1297 1281 1297Z" fill="#E6E6E6"/>
<path d="M403.5 1396C414.27 1396 423 1387.27 423 1376.5C423 1365.73 414.27 1357 403.5 1357C392.73 1357 384 1365.73 384 1376.5C384 1387.27 392.73 1396 403.5 1396Z" fill="#E6E6E6"/>
<path d="M501 1396C511.493 1396 520 1387.27 520 1376.5C520 1365.73 511.493 1357 501 1357C490.507 1357 482 1365.73 482 1376.5C482 1387.27 490.507 1396 501 1396Z" fill="#E6E6E6"/>
<path d="M598.5 1396C609.27 1396 618 1387.27 618 1376.5C618 1365.73 609.27 1357 598.5 1357C587.73 1357 579 1365.73 579 1376.5C579 1387.27 587.73 1396 598.5 1396Z" fill="#E6E6E6"/>
<path d="M696 1396C706.493 1396 715 1387.27 715 1376.5C715 1365.73 706.493 1357 696 1357C685.507 1357 677 1365.73 677 1376.5C677 1387.27 685.507 1396 696 1396Z" fill="#E6E6E6"/>
<path d="M793.5 1396C804.27 1396 813 1387.27 813 1376.5C813 1365.73 804.27 1357 793.5 1357C782.73 1357 774 1365.73 774 1376.5C774 1387.27 782.73 1396 793.5 1396Z" fill="#E6E6E6"/>
<path d="M891 1396C901.493 1396 910 1387.27 910 1376.5C910 1365.73 901.493 1357 891 1357C880.507 1357 872 1365.73 872 1376.5C872 1387.27 880.507 1396 891 1396Z" fill="#E6E6E6"/>
<path d="M988.5 1396C999.27 1396 1008 1387.27 1008 1376.5C1008 1365.73 999.27 1357 988.5 1357C977.73 1357 969 1365.73 969 1376.5C969 1387.27 977.73 1396 988.5 1396Z" fill="#E6E6E6"/>
<path d="M1086 1396C1096.49 1396 1105 1387.27 1105 1376.5C1105 1365.73 1096.49 1357 1086 1357C1075.51 1357 1067 1365.73 1067 1376.5C1067 1387.27 1075.51 1396 1086 1396Z" fill="#E6E6E6"/>
<path d="M1183.5 1396C1194.27 1396 1203 1387.27 1203 1376.5C1203 1365.73 1194.27 1357 1183.5 1357C1172.73 1357 1164 1365.73 1164 1376.5C1164 1387.27 1172.73 1396 1183.5 1396Z" fill="#E6E6E6"/>
<path d="M1281 1396C1291.49 1396 1300 1387.27 1300 1376.5C1300 1365.73 1291.49 1357 1281 1357C1270.51 1357 1262 1365.73 1262 1376.5C1262 1387.27 1270.51 1396 1281 1396Z" fill="#E6E6E6"/>
<path d="M403.5 1495C414.27 1495 423 1486.27 423 1475.5C423 1464.73 414.27 1456 403.5 1456C392.73 1456 384 1464.73 384 1475.5C384 1486.27 392.73 1495 403.5 1495Z" fill="#E6E6E6"/>
<path d="M501 1495C511.493 1495 520 1486.27 520 1475.5C520 1464.73 511.493 1456 501 1456C490.507 1456 482 1464.73 482 1475.5C482 1486.27 490.507 1495 501 1495Z" fill="#E6E6E6"/>
<path d="M598.5 1495C609.27 1495 618 1486.27 618 1475.5C618 1464.73 609.27 1456 598.5 1456C587.73 1456 579 1464.73 579 1475.5C579 1486.27 587.73 1495 598.5 1495Z" fill="#E6E6E6"/>
<path d="M696 1495C706.493 1495 715 1486.27 715 1475.5C715 1464.73 706.493 1456 696 1456C685.507 1456 677 1464.73 677 1475.5C677 1486.27 685.507 1495 696 1495Z" fill="#E6E6E6"/>
<path d="M793.5 1495C804.27 1495 813 1486.27 813 1475.5C813 1464.73 804.27 1456 793.5 1456C782.73 1456 774 1464.73 774 1475.5C774 1486.27 782.73 1495 793.5 1495Z" fill="#E6E6E6"/>
<path d="M891 1495C901.493 1495 910 1486.27 910 1475.5C910 1464.73 901.493 1456 891 1456C880.507 1456 872 1464.73 872 1475.5C872 1486.27 880.507 1495 891 1495Z" fill="#E6E6E6"/>
<path d="M988.5 1495C999.27 1495 1008 1486.27 1008 1475.5C1008 1464.73 999.27 1456 988.5 1456C977.73 1456 969 1464.73 969 1475.5C969 1486.27 977.73 1495 988.5 1495Z" fill="#E6E6E6"/>
<path d="M1086 1495C1096.49 1495 1105 1486.27 1105 1475.5C1105 1464.73 1096.49 1456 1086 1456C1075.51 1456 1067 1464.73 1067 1475.5C1067 1486.27 1075.51 1495 1086 1495Z" fill="#E6E6E6"/>
<path d="M1183.5 1495C1194.27 1495 1203 1486.27 1203 1475.5C1203 1464.73 1194.27 1456 1183.5 1456C1172.73 1456 1164 1464.73 1164 1475.5C1164 1486.27 1172.73 1495 1183.5 1495Z" fill="#E6E6E6"/>
<path d="M1281 1495C1291.49 1495 1300 1486.27 1300 1475.5C1300 1464.73 1291.49 1456 1281 1456C1270.51 1456 1262 1464.73 1262 1475.5C1262 1486.27 1270.51 1495 1281 1495Z" fill="#E6E6E6"/>
<path d="M1515.67 740C1522.12 740 1528.31 742.566 1532.87 747.134C1537.44 751.702 1540 757.897 1540 764.357V1738.64C1540 1741.84 1539.37 1745.01 1538.15 1747.96C1536.93 1750.92 1535.13 1753.6 1532.87 1755.87C1530.61 1758.13 1527.93 1759.92 1524.98 1761.15C1522.03 1762.37 1518.86 1763 1515.67 1763H817.332C814.137 1763 810.973 1762.37 808.021 1761.15C805.069 1759.92 802.386 1758.13 800.127 1755.87C797.867 1753.6 796.075 1750.92 794.852 1747.96C793.629 1745.01 793 1741.84 793 1738.64V764.357C793 757.897 795.564 751.702 800.127 747.134C804.69 742.566 810.879 740 817.332 740H1515.67" fill="#E6E6E6"/>
<path d="M820 1735H1513V767H820V1735Z" fill="white"/>
<path d="M1359.12 920C1359.76 920 1360.4 920.129 1360.99 920.381C1361.58 920.632 1362.12 921 1362.57 921.464C1363.02 921.929 1363.38 922.48 1363.63 923.087C1363.87 923.693 1364 924.343 1364 925V935C1364 936.326 1363.49 937.598 1362.57 938.536C1361.66 939.473 1360.42 940 1359.12 940H973.877C973.236 940 972.602 939.871 972.01 939.619C971.419 939.368 970.881 939 970.428 938.536C969.976 938.071 969.616 937.52 969.371 936.913C969.126 936.307 969 935.657 969 935V925C969 924.343 969.126 923.693 969.371 923.087C969.616 922.48 969.976 921.929 970.428 921.464C970.881 921 971.419 920.632 972.01 920.381C972.602 920.129 973.236 920 973.877 920H1359.12" fill="#E6E6E6"/>
<path d="M1359.12 967C1360.42 967 1361.66 967.5 1362.57 968.391C1363.49 969.282 1364 970.49 1364 971.75V981.25C1364 982.51 1363.49 983.718 1362.57 984.609C1361.66 985.5 1360.42 986 1359.12 986H973.877C973.236 986 972.602 985.877 972.01 985.638C971.419 985.4 970.881 985.05 970.428 984.609C969.976 984.168 969.616 983.644 969.371 983.068C969.126 982.491 969 981.874 969 981.25V971.75C969 971.126 969.126 970.509 969.371 969.932C969.616 969.356 969.976 968.832 970.428 968.391C970.881 967.95 971.419 967.6 972.01 967.362C972.602 967.123 973.236 967 973.877 967H1359.12" fill="#E6E6E6"/>
<path d="M1359.12 1013C1360.42 1013 1361.66 1013.5 1362.57 1014.39C1363.49 1015.28 1364 1016.49 1364 1017.75V1027.25C1364 1028.51 1363.49 1029.72 1362.57 1030.61C1361.66 1031.5 1360.42 1032 1359.12 1032H973.877C972.583 1032 971.343 1031.5 970.428 1030.61C969.514 1029.72 969 1028.51 969 1027.25V1017.75C969 1016.49 969.514 1015.28 970.428 1014.39C971.343 1013.5 972.583 1013 973.877 1013H1359.12" fill="#007EDA"/>
<path d="M1359.12 1060C1360.42 1060 1361.66 1060.53 1362.57 1061.46C1363.49 1062.4 1364 1063.67 1364 1065V1075C1364 1076.33 1363.49 1077.6 1362.57 1078.54C1361.66 1079.47 1360.42 1080 1359.12 1080H973.877C973.236 1080 972.602 1079.87 972.01 1079.62C971.419 1079.37 970.881 1079 970.428 1078.54C969.976 1078.07 969.616 1077.52 969.371 1076.91C969.126 1076.31 969 1075.66 969 1075V1065C969 1064.34 969.126 1063.69 969.371 1063.09C969.616 1062.48 969.976 1061.93 970.428 1061.46C970.881 1061 971.419 1060.63 972.01 1060.38C972.602 1060.13 973.236 1060 973.877 1060H1359.12" fill="#E6E6E6"/>
<path d="M1359.12 1106C1360.42 1106 1361.66 1106.53 1362.57 1107.46C1363.49 1108.4 1364 1109.67 1364 1111V1121C1364 1121.66 1363.87 1122.31 1363.63 1122.91C1363.38 1123.52 1363.02 1124.07 1362.57 1124.54C1362.12 1125 1361.58 1125.37 1360.99 1125.62C1360.4 1125.87 1359.76 1126 1359.12 1126H973.877C973.236 1126 972.602 1125.87 972.01 1125.62C971.419 1125.37 970.881 1125 970.428 1124.54C969.976 1124.07 969.616 1123.52 969.371 1122.91C969.126 1122.31 969 1121.66 969 1121V1111C969 1110.34 969.126 1109.69 969.371 1109.09C969.616 1108.48 969.976 1107.93 970.428 1107.46C970.881 1107 971.419 1106.63 972.01 1106.38C972.602 1106.13 973.236 1106 973.877 1106H1359.12" fill="#E6E6E6"/>
<path d="M1359.12 1153C1360.42 1153 1361.66 1153.5 1362.57 1154.39C1363.49 1155.28 1364 1156.49 1364 1157.75V1167.25C1364 1168.51 1363.49 1169.72 1362.57 1170.61C1361.66 1171.5 1360.42 1172 1359.12 1172H973.877C972.583 1172 971.343 1171.5 970.428 1170.61C969.514 1169.72 969 1168.51 969 1167.25V1157.75C969 1156.49 969.514 1155.28 970.428 1154.39C971.343 1153.5 972.583 1153 973.877 1153H1359.12" fill="#E6E6E6"/>
<path d="M976.647 1308C975.15 1308 973.714 1308.6 972.656 1309.66C971.597 1310.72 971.001 1312.16 971 1313.65V1576.35C971.002 1577.84 971.597 1579.28 972.656 1580.34C973.714 1581.4 975.15 1582 976.647 1582H1355.35C1356.85 1582 1358.29 1581.4 1359.34 1580.34C1360.4 1579.28 1361 1577.84 1361 1576.35V1313.65C1361 1312.16 1360.4 1310.72 1359.34 1309.66C1358.29 1308.6 1356.85 1308 1355.35 1308H976.647Z" fill="#007EDA"/>
<path d="M1167.98 1023L1164 1021.95L1250.91 696H1755V700.109H1254.07L1167.98 1023Z" fill="#3F3D56"/>
<path d="M1796 741C1787.5 741 1779.18 738.449 1772.11 733.669C1765.04 728.889 1759.53 722.095 1756.27 714.147C1753.02 706.198 1752.17 697.452 1753.83 689.014C1755.49 680.575 1759.58 672.824 1765.59 666.741C1771.61 660.657 1779.27 656.514 1787.61 654.836C1795.95 653.157 1804.6 654.019 1812.46 657.311C1820.31 660.604 1827.03 666.179 1831.75 673.333C1836.48 680.486 1839 688.897 1839 697.5C1838.99 709.033 1834.45 720.09 1826.39 728.245C1818.33 736.4 1807.4 740.987 1796 741V741ZM1796 658.143C1788.31 658.143 1780.78 660.451 1774.39 664.776C1767.99 669.1 1763 675.247 1760.06 682.439C1757.11 689.63 1756.34 697.544 1757.84 705.178C1759.34 712.813 1763.05 719.826 1768.49 725.33C1773.93 730.834 1780.86 734.582 1788.41 736.101C1795.96 737.62 1803.78 736.84 1810.89 733.861C1818 730.882 1824.07 725.838 1828.35 719.366C1832.62 712.893 1834.9 705.284 1834.9 697.5C1834.89 687.065 1830.79 677.062 1823.5 669.683C1816.2 662.305 1806.31 658.155 1796 658.143Z" fill="#3F3D56"/>
<path d="M1689.4 175.134C1700.29 175.134 1709.11 166.312 1709.11 155.43C1709.11 144.547 1700.29 135.726 1689.4 135.726C1678.52 135.726 1669.7 144.547 1669.7 155.43C1669.7 166.312 1678.52 175.134 1689.4 175.134Z" fill="#007EDA"/>
<path d="M1154.02 1577L1158 1578.06L1070.56 1904L567 1903.04L567.008 1898.93L1067.41 1899.89L1154.02 1577Z" fill="#3F3D56"/>
<path d="M526.082 1858C534.587 1858.02 542.896 1860.55 549.958 1865.29C557.02 1870.03 562.519 1876.76 565.758 1884.62C568.998 1892.48 569.833 1901.13 568.158 1909.47C566.482 1917.81 562.372 1925.46 556.347 1931.46C550.322 1937.47 542.652 1941.55 534.308 1943.19C525.964 1944.83 517.319 1943.96 509.468 1940.7C501.618 1937.43 494.912 1931.9 490.201 1924.82C485.49 1917.74 482.984 1909.42 483 1900.92C483.035 1889.52 487.59 1878.6 495.667 1870.55C503.744 1862.5 514.682 1857.99 526.082 1858V1858ZM525.925 1939.9C533.62 1939.92 541.146 1937.65 547.552 1933.39C553.958 1929.13 558.956 1923.06 561.915 1915.96C564.873 1908.85 565.658 1901.03 564.172 1893.48C562.685 1885.93 558.993 1878.99 553.562 1873.54C548.132 1868.09 541.207 1864.37 533.663 1862.86C526.119 1861.34 518.295 1862.1 511.181 1865.03C504.066 1867.96 497.981 1872.93 493.693 1879.32C489.406 1885.71 487.11 1893.23 487.095 1900.93C487.087 1911.24 491.171 1921.14 498.45 1928.44C505.73 1935.75 515.611 1939.87 525.925 1939.9V1939.9Z" fill="#3F3D56"/>
<path d="M525.5 1918C534.613 1918 542 1910.61 542 1901.5C542 1892.39 534.613 1885 525.5 1885C516.387 1885 509 1892.39 509 1901.5C509 1910.61 516.387 1918 525.5 1918Z" fill="#007EDA"/>
<path d="M2086.87 2031.58H2052.1L2058.31 1839.14L2150.2 1844.11L2086.87 2031.58Z" fill="#FFB8B8"/>
<path d="M2091.61 2142.18C2081.12 2146.97 2072.33 2108.17 2063.47 2116.87C2038.71 2141.2 2013.13 2146.5 1980.07 2135.88L1979.31 2135.75C1977.31 2135.11 1975.47 2134.07 1973.89 2132.69C1972.31 2131.32 1971.02 2129.64 1970.11 2127.75C1969.2 2125.87 1968.68 2123.82 1968.58 2121.72C1968.49 2119.63 1968.82 2117.54 1969.55 2115.58C1970.43 2113.23 1971.87 2111.13 1973.74 2109.47C1975.61 2107.8 1977.86 2106.61 1980.29 2106L2006.63 2099.42L2047.97 2026.71L2090.19 2023.86C2099.6 2035.86 2106.16 2049.83 2109.39 2064.73C2112.63 2079.63 2112.44 2095.06 2108.84 2109.88C2105.01 2125.51 2099.09 2138.77 2091.61 2142.18Z" fill="#2F2E41"/>
<path d="M2417.2 2006.15L2384.87 2018.93L2319.85 1837.7L2407.13 1808.52L2417.2 2006.15Z" fill="#FFB8B8"/>
<path d="M2462.3 2107.25C2454.3 2115.56 2431.85 2082.71 2426.82 2094.06C2412.74 2125.79 2390.9 2140.12 2356.26 2142.4L2355.5 2142.56C2353.41 2142.7 2351.31 2142.41 2349.33 2141.71C2347.36 2141.02 2345.55 2139.93 2344 2138.51C2342.46 2137.09 2341.22 2135.38 2340.36 2133.46C2339.51 2131.55 2339.04 2129.49 2339.01 2127.4C2338.96 2124.89 2339.53 2122.41 2340.65 2120.17C2341.78 2117.93 2343.43 2116 2345.47 2114.54L2367.54 2098.73L2379.24 2015.92L2417.44 1997.74C2430.61 2005.44 2441.85 2016.02 2450.34 2028.68C2458.82 2041.35 2464.33 2055.77 2466.43 2070.87C2468.62 2086.82 2468 2101.32 2462.3 2107.25Z" fill="#2F2E41"/>
<path d="M2311.64 1076.9L2258.26 1090.62C2254.22 1091.66 2250 1091.78 2245.91 1090.97C2241.82 1090.17 2237.96 1088.46 2234.61 1085.97C2231.27 1083.48 2228.52 1080.27 2226.58 1076.58C2224.64 1072.89 2223.55 1068.81 2223.39 1064.64C2223.24 1060.81 2223.88 1056.99 2225.28 1053.42C2226.67 1049.84 2228.78 1046.6 2231.49 1043.88C2234.19 1041.16 2237.43 1039.02 2240.99 1037.61C2244.55 1036.19 2248.37 1035.53 2252.2 1035.65L2299.22 1037.17L2389.83 1004.18L2304.19 940.323L2314.13 850.93L2481.02 984.895C2484 987.284 2486.45 990.262 2488.22 993.641C2490 997.021 2491.05 1000.73 2491.32 1004.54V1004.54C2491.78 1010.93 2490 1017.29 2486.3 1022.53C2482.59 1027.76 2477.18 1031.55 2470.99 1033.25C2431.89 1065.15 2374.91 1074.93 2311.64 1076.9Z" fill="#FFB8B8"/>
<path d="M2189.95 741.672C2237.95 741.672 2276.87 702.761 2276.87 654.762C2276.87 606.762 2237.95 567.852 2189.95 567.852C2141.94 567.852 2103.02 606.762 2103.02 654.762C2103.02 702.761 2141.94 741.672 2189.95 741.672Z" fill="#FFB8B8"/>
<path d="M2296.74 773.953L2180.01 821.132C2183.44 784.239 2173.77 747.317 2152.69 716.84L2249.55 694.492C2248.29 724.069 2264.29 750.507 2296.74 773.953Z" fill="#FFB8B8"/>
<path d="M2317.85 976.328C2223.76 983.858 2172.29 971.365 2093.09 925.424L2122.89 855.896C2121.39 845.427 2122.81 834.748 2126.99 825.034C2131.17 815.32 2137.95 806.946 2146.58 800.833L2177.53 778.918L2271.91 751.604L2276.14 751.815C2288.69 752.443 2300.59 757.625 2309.59 766.392C2318.6 775.159 2324.1 786.909 2325.07 799.44C2345.57 860.701 2345.7 919.918 2317.85 976.328Z" fill="#007EDA"/>
<path d="M2299.22 1121.59L2098.05 1099.24L2083.15 1034.68C2050.12 984.83 2064.54 939.166 2103.02 895.627C2173.17 940.636 2238.28 960.086 2331.51 945.29C2306.72 1005.58 2283.82 1064.83 2299.22 1121.59Z" fill="#2F2E41"/>
<path d="M2455.69 1873.99L2295.5 1865.29L2243.34 1450.61L2201.12 1862.81L2011.13 1854.12C2069.09 1583.13 2109.35 1325.88 2098.05 1089.31L2296.74 1106.69C2364.08 1177.68 2397.51 1291 2417.19 1425.78C2436.88 1560.56 2452.74 1716.81 2455.69 1873.99Z" fill="#2F2E41"/>
<path d="M2285.64 575.643C2302.14 575.643 2315.52 562.268 2315.52 545.77C2315.52 529.271 2302.14 515.896 2285.64 515.896C2269.14 515.896 2255.76 529.271 2255.76 545.77C2255.76 562.268 2269.14 575.643 2285.64 575.643Z" fill="#2F2E41"/>
<path d="M2254.85 538.456C2255.34 530.877 2258.7 523.77 2264.25 518.582C2269.8 513.395 2277.12 510.517 2284.71 510.535C2284.1 510.457 2283.49 510.362 2282.86 510.321C2274.95 509.813 2267.16 512.466 2261.21 517.698C2255.26 522.929 2251.63 530.31 2251.12 538.216C2250.62 546.123 2253.27 553.907 2258.5 559.858C2263.73 565.808 2271.12 569.436 2279.02 569.944C2279.65 569.985 2280.27 569.969 2280.89 569.97C2273.36 569.016 2266.47 565.225 2261.63 559.37C2256.79 553.515 2254.37 546.036 2254.85 538.456V538.456Z" fill="#2F2E41"/>
<path d="M2254.68 551.213C2228.04 529.112 2151.61 557.201 2146.67 572.06C2110.64 576.97 2083.36 597.99 2083.36 635.365V635.365C2104.78 644.14 2129.15 643.058 2155.48 635.365C2197.47 669.575 2200.35 712.58 2174.81 761.974L2206.23 762.602L2245.17 705.704L2247.03 763.418L2319.03 761.974V679.265C2319.27 651.765 2312.94 624.607 2300.57 600.043C2289.35 578.247 2271.93 565.521 2254.68 551.213Z" fill="#2F2E41"/>
<path d="M2187.63 697.341C2195.52 697.341 2201.92 688.387 2201.92 677.341C2201.92 666.296 2195.52 657.342 2187.63 657.342C2179.74 657.342 2173.34 666.296 2173.34 677.341C2173.34 688.387 2179.74 697.341 2187.63 697.341Z" fill="#FFB8B8"/>
<path d="M2078.34 1444.35C2079.67 1444.35 2080.95 1444.87 2081.89 1445.82C2082.83 1446.76 2083.36 1448.03 2083.36 1449.36V1650.02C2083.36 1651.35 2082.83 1652.62 2081.89 1653.56C2080.95 1654.51 2079.67 1655.03 2078.34 1655.03H1934.35C1933.02 1655.03 1931.74 1654.51 1930.8 1653.56C1929.86 1652.62 1929.33 1651.35 1929.33 1650.02V1449.36C1929.33 1448.03 1929.86 1446.76 1930.8 1445.82C1931.74 1444.87 1933.02 1444.35 1934.35 1444.35H2078.34" fill="#007EDA"/>
<path d="M2098.05 1369.91L2102.92 1454.18C2103.23 1459.6 2102.33 1465.03 2100.29 1470.06C2098.24 1475.1 2095.1 1479.61 2091.09 1483.28C2087.08 1486.95 2082.3 1489.68 2077.11 1491.27C2071.91 1492.87 2066.43 1493.28 2061.05 1492.49C2039.64 1489.35 2039.15 1468.41 2044.4 1447.41L2064.4 1367.42C2113.46 1191.53 2126.71 1018.89 2124.23 850.518C2124.13 844.808 2125.18 839.137 2127.33 833.847C2129.49 828.557 2132.69 823.757 2136.75 819.738C2140.8 815.719 2145.63 812.563 2150.94 810.462C2156.26 808.361 2161.94 807.357 2167.65 807.512C2173.22 807.673 2178.7 808.934 2183.78 811.223C2188.86 813.511 2193.44 816.782 2197.25 820.846C2201.06 824.91 2204.03 829.687 2205.99 834.904C2207.95 840.12 2208.85 845.672 2208.66 851.24C2201.71 1048.95 2172.87 1228.5 2098.05 1369.91Z" fill="#FFB8B8"/>
</g>
<defs>
<clipPath id="clip0_38_2483">
<rect width="2647" height="2145" fill="white"/>
</clipPath>
</defs>
</svg>
