<svg width="20" height="20" viewBox="0 0 20 20" fill="none" xmlns="http://www.w3.org/2000/svg">
<path id="search" d="M19.1387 18.0273L13.052 11.9406C13.9965 10.7195 14.5074 9.22656 14.5074 7.65625C14.5074 5.77656 13.7739 4.01406 12.4473 2.68516C11.1207 1.35625 9.35354 0.625 7.4762 0.625C5.59885 0.625 3.83166 1.35859 2.5051 2.68516C1.1762 4.01172 0.444946 5.77656 0.444946 7.65625C0.444946 9.53359 1.17854 11.3008 2.5051 12.6273C3.83166 13.9562 5.59651 14.6875 7.4762 14.6875C9.04651 14.6875 10.5371 14.1766 11.7582 13.2344L17.8449 19.3187C17.8628 19.3366 17.884 19.3508 17.9073 19.3604C17.9306 19.3701 17.9556 19.3751 17.9809 19.3751C18.0061 19.3751 18.0311 19.3701 18.0545 19.3604C18.0778 19.3508 18.099 19.3366 18.1168 19.3187L19.1387 18.2992C19.1566 18.2814 19.1707 18.2602 19.1804 18.2369C19.1901 18.2135 19.195 18.1885 19.195 18.1633C19.195 18.138 19.1901 18.113 19.1804 18.0897C19.1707 18.0664 19.1566 18.0452 19.1387 18.0273V18.0273ZM11.1887 11.3688C10.1949 12.3602 8.87776 12.9062 7.4762 12.9062C6.07463 12.9062 4.75745 12.3602 3.7637 11.3688C2.77229 10.375 2.2262 9.05781 2.2262 7.65625C2.2262 6.25469 2.77229 4.93516 3.7637 3.94375C4.75745 2.95234 6.07463 2.40625 7.4762 2.40625C8.87776 2.40625 10.1973 2.95 11.1887 3.94375C12.1801 4.9375 12.7262 6.25469 12.7262 7.65625C12.7262 9.05781 12.1801 10.3773 11.1887 11.3688Z"/>
</svg>
