<svg width="9" height="9" viewBox="0 0 9 9" fill="none" xmlns="http://www.w3.org/2000/svg">
<path d="M8.26298 3.11659L5.86473 2.7516L4.79265 0.475628C4.76337 0.413313 4.7152 0.362868 4.65569 0.332205C4.50645 0.255054 4.3251 0.319347 4.25047 0.475628L3.1784 2.7516L0.780152 3.11659C0.714033 3.12648 0.653581 3.15912 0.607297 3.20858C0.551343 3.2688 0.520509 3.34982 0.521572 3.43384C0.522635 3.51786 0.555506 3.598 0.612964 3.65665L2.34813 5.42817L1.93819 7.92966C1.92857 7.98785 1.93472 8.0477 1.95594 8.10242C1.97715 8.15713 2.01258 8.20453 2.05821 8.23924C2.10384 8.27394 2.15784 8.29456 2.21409 8.29876C2.27034 8.30296 2.32659 8.29057 2.37646 8.263L4.52156 7.08198L6.66667 8.263C6.72523 8.29564 6.79324 8.30652 6.85841 8.29465C7.02277 8.26498 7.13328 8.10177 7.10494 7.92966L6.695 5.42817L8.43016 3.65665C8.47739 3.60818 8.50856 3.54488 8.51801 3.47564C8.54351 3.30254 8.42828 3.14231 8.26298 3.11659V3.11659ZM5.96486 5.17891L6.30584 7.25904L4.52156 6.27783L2.73729 7.26003L3.07827 5.1799L1.63498 3.70611L3.6299 3.40245L4.52156 1.51025L5.41323 3.40245L7.40815 3.70611L5.96486 5.17891Z"/>
</svg>
